<svg xmlns="http://www.w3.org/2000/svg" viewBox="0 0 32 32" role="img" aria-label="arXiv icon">
  <defs>
    <linearGradient id="arxivGradient" x1="0%" y1="0%" x2="100%" y2="100%">
      <stop offset="0%" stop-color="#ce2d2d"/>
      <stop offset="100%" stop-color="#8c101b"/>
    </linearGradient>
  </defs>
  <rect width="32" height="32" rx="6" fill="url(#arxivGradient)"/>
  <path d="M6 9.5c2.4-.9 4.8-.9 7.2 0s4.8.9 7.2 0c1.1-.4 2.2-.6 3.3-.6 2.2 0 3.5.7 4.3 1.2v14.2c-.8-.5-2.1-1.2-4.3-1.2-1.1 0-2.2.2-3.3.6-2.4.9-4.8.9-7.2 0-2.4-.9-4.8-.9-7.2 0-1.1.4-2.2.6-3.3.6-1.4 0-2.5-.3-3.3-.7V10.2c.8.4 1.9.7 3.3.7 1.1 0 2.2-.2 3.3-.6z" fill="rgba(255,255,255,0.25)"/>
  <path d="M9.8 11.5c0-1 .8-1.8 1.8-1.8h0c1 0 1.8.8 1.8 1.8v9.1c0 1-.8 1.8-1.8 1.8h0c-1 0-1.8-.8-1.8-1.8v-9.1z" fill="#fff"/>
  <path d="M20.8 10.2c.4-.4 1.1-.4 1.5 0l3.4 3.4 3.4-3.4c.4-.4 1.1-.4 1.5 0s.4 1.1 0 1.5l-3.4 3.4 3.4 3.4c.4.4.4 1.1 0 1.5-.2.2-.5.3-.7.3s-.5-.1-.7-.3l-3.4-3.4-3.4 3.4c-.4.4-1.1.4-1.5 0s-.4-1.1 0-1.5l3.4-3.4-3.4-3.4c-.4-.4-.4-1.1 0-1.5z" fill="#fff"/>
</svg>
